<svg width="30" height="30" viewBox="0 0 30 30" fill="none" xmlns="http://www.w3.org/2000/svg">
<path fill-rule="evenodd" clip-rule="evenodd" d="M30 0H0V30H30V0ZM11.3126 21.3446C11.4351 21.3446 11.5322 21.2771 11.5322 21.1928C11.5322 21.0958 11.4224 21.0283 11.2957 21.041C11.1732 21.041 11.076 21.1085 11.076 21.1928C11.076 21.2897 11.1732 21.3572 11.3126 21.3446ZM10.4002 21.2097C10.2735 21.1844 10.189 21.0874 10.2186 21.003C10.2481 20.9187 10.3706 20.8765 10.4805 20.906C10.6072 20.944 10.6874 21.041 10.6621 21.1253C10.6367 21.2097 10.51 21.2518 10.4002 21.2097ZM11.8912 21.138C11.8786 21.041 11.963 20.9609 12.0855 20.9313C12.208 20.9187 12.3221 20.9735 12.3347 21.0536C12.3474 21.138 12.2629 21.2181 12.1404 21.2476C12.0137 21.2771 11.9039 21.2223 11.8912 21.138ZM4.52479 15.0616C4.52479 9.21296 9.00632 4.77273 14.8648 4.77273C20.7233 4.77273 25.4752 9.21296 25.4752 15.0616C25.4752 19.738 22.6114 23.7397 18.3875 25.1397C17.8511 25.2367 17.6568 24.9036 17.6568 24.6295C17.6568 24.2837 17.6695 22.5253 17.6695 21.1042C17.6695 20.1133 17.34 19.4808 16.9514 19.1477C19.3126 18.882 21.8004 18.5573 21.8004 14.4882C21.8004 13.3327 21.3865 12.7509 20.7107 12.0045C20.8205 11.7304 21.1795 10.6045 20.6009 9.14129C19.7181 8.86297 17.6864 10.2798 17.6864 10.2798C16.8416 10.0437 15.9335 9.92141 15.0338 9.92141C14.1341 9.92141 13.226 10.0437 12.3812 10.2798C12.3812 10.2798 10.3495 8.86721 9.46672 9.14129C8.88806 10.6003 9.24708 11.7304 9.3569 12.0045C8.68109 12.7466 8.36007 13.3285 8.36007 14.4882C8.36007 18.5447 10.7423 18.8862 13.1035 19.1477C12.7994 19.4259 12.5248 19.894 12.4277 20.5687C11.8236 20.847 10.2735 21.315 9.34846 19.6874C8.76978 18.6838 7.71805 18.5995 7.71805 18.5995C6.6832 18.5868 7.65046 19.2488 7.65046 19.2488C8.34318 19.5651 8.8247 20.7922 8.8247 20.7922C9.44561 22.6813 12.4023 22.0488 12.4023 22.0488C12.4023 22.6226 12.4076 23.43 12.4114 23.9986C12.4134 24.3074 12.415 24.5458 12.415 24.6379C12.415 24.912 12.2249 25.2451 11.6843 25.1481C7.47306 23.7397 4.52479 19.738 4.52479 15.0616ZM8.65997 19.5356C8.58816 19.4555 8.57549 19.3585 8.6304 19.3163C8.68531 19.2615 8.78246 19.291 8.85005 19.3585C8.92185 19.4386 8.93452 19.5356 8.8796 19.5778C8.8247 19.6326 8.72755 19.6031 8.65997 19.5356ZM8.27137 19.1392C8.18689 19.0971 8.14465 19.0296 8.17422 18.9748C8.20379 18.9326 8.27137 18.92 8.35584 18.9453C8.44033 18.9874 8.48256 19.0549 8.453 19.1097C8.42343 19.1688 8.33896 19.1814 8.27137 19.1392ZM9.59766 20.7374C9.50051 20.6573 9.47518 20.5308 9.54276 20.4759C9.59766 20.4085 9.72438 20.4211 9.81731 20.5181C9.90178 20.5982 9.92713 20.7248 9.87221 20.7795C9.81731 20.847 9.69481 20.8344 9.59766 20.7374ZM9.06124 20.1049C8.99366 20.0079 8.99366 19.8983 9.06124 19.8561C9.12882 19.8012 9.23864 19.8434 9.29778 19.9404C9.36535 20.0374 9.36535 20.147 9.29778 20.2018C9.24286 20.244 9.12882 20.2018 9.06124 20.1049Z" fill="#313335"/>
</svg>
