<svg width="30" height="30" viewBox="0 0 30 30" fill="none" xmlns="http://www.w3.org/2000/svg">
<path fill-rule="evenodd" clip-rule="evenodd" d="M30 0H0V30H30V0ZM19.9437 14.9683C19.9437 17.6811 17.7445 19.8803 15.0317 19.8803C12.3189 19.8803 10.1197 17.6811 10.1197 14.9683C10.1197 12.2555 12.3189 10.0563 15.0317 10.0563C17.7445 10.0563 19.9437 12.2555 19.9437 14.9683ZM18.3063 14.9683C18.3063 16.7768 16.8402 18.2429 15.0317 18.2429C13.2231 18.2429 11.757 16.7768 11.757 14.9683C11.757 13.1598 13.2231 11.6937 15.0317 11.6937C16.8402 11.6937 18.3063 13.1598 18.3063 14.9683ZM19.912 9.29578C19.4744 9.29578 19.1197 9.65049 19.1197 10.088C19.1197 10.5256 19.4744 10.8803 19.912 10.8803C20.3495 10.8803 20.7042 10.5256 20.7042 10.088C20.7042 9.65049 20.3495 9.29578 19.912 9.29578ZM6 13.8545C6 11.1052 6 9.73053 6.53506 8.68041C7.00571 7.7567 7.7567 7.00571 8.68041 6.53506C9.73053 6 11.1052 6 13.8545 6H16.1455C18.8948 6 20.2695 6 21.3196 6.53506C22.2433 7.00571 22.9943 7.7567 23.4649 8.68041C24 9.73053 24 11.1052 24 13.8545V16.1455C24 18.8948 24 20.2695 23.4649 21.3196C22.9943 22.2433 22.2433 22.9943 21.3196 23.4649C20.2695 24 18.8948 24 16.1455 24H13.8545C11.1052 24 9.73053 24 8.68041 23.4649C7.7567 22.9943 7.00571 22.2433 6.53506 21.3196C6 20.2695 6 18.8948 6 16.1455V13.8545ZM13.8545 7.63636H16.1455C17.5472 7.63636 18.4999 7.63764 19.2365 7.69781C19.9539 7.75642 20.3208 7.86266 20.5767 7.99307C21.1925 8.30684 21.6931 8.8075 22.0069 9.42331C22.1373 9.67923 22.2436 10.0461 22.3022 10.7635C22.3623 11.5 22.3636 12.4529 22.3636 13.8545V16.1455C22.3636 17.5472 22.3623 18.4999 22.3022 19.2365C22.2436 19.9539 22.1373 20.3208 22.0069 20.5767C21.6931 21.1925 21.1925 21.6931 20.5767 22.0069C20.3208 22.1373 19.9539 22.2436 19.2365 22.3022C18.4999 22.3623 17.5472 22.3636 16.1455 22.3636H13.8545C12.4529 22.3636 11.5 22.3623 10.7635 22.3022C10.0461 22.2436 9.67923 22.1373 9.42331 22.0069C8.8075 21.6931 8.30684 21.1925 7.99307 20.5767C7.86266 20.3208 7.75642 19.9539 7.69781 19.2365C7.63764 18.4999 7.63636 17.5472 7.63636 16.1455V13.8545C7.63636 12.4529 7.63764 11.5 7.69781 10.7635C7.75642 10.0461 7.86266 9.67923 7.99307 9.42331C8.30684 8.8075 8.8075 8.30684 9.42331 7.99307C9.67923 7.86266 10.0461 7.75642 10.7635 7.69781C11.5 7.63764 12.4529 7.63636 13.8545 7.63636Z" fill="#313335"/>
</svg>
