<svg width="1557" height="1500" viewBox="0 0 1557 1500" fill="none" xmlns="http://www.w3.org/2000/svg">
<g filter="url(#filter0_d_912_7)">
<path d="M467.689 1001.18C453.835 1034.41 446.905 1069.04 446.905 1106.43C438.59 1102.28 430.276 1099.51 421.965 1095.35C324.968 1039.95 269.543 958.242 257.073 847.449C251.53 793.436 258.457 742.196 276.473 690.953C287.555 660.486 301.412 632.787 313.882 602.32C315.27 598.163 318.041 594.01 318.041 589.853C319.425 528.917 318.041 467.984 301.412 408.43C287.555 358.574 266.771 312.871 234.902 269.937C230.745 264.401 225.203 257.474 222.431 250.551C215.503 235.318 223.817 218.697 241.83 220.081C252.916 220.081 264 222.851 273.701 227.008C323.584 245.011 367.924 274.094 410.879 304.561C453.835 336.414 494.016 372.424 531.429 409.817C557.756 395.967 584.083 382.117 610.41 369.654C686.623 333.644 766.988 310.101 850.128 299.021C930.493 287.944 1010.86 289.327 1091.23 311.487C1138.34 323.951 1181.3 343.341 1218.71 373.807C1235.33 386.27 1249.19 402.89 1261.66 418.124C1279.67 437.514 1278.29 461.057 1274.13 485.987C1261.66 555.233 1233.95 617.553 1196.54 677.103C1168.82 721.423 1138.34 761.583 1102.31 800.363C1098.16 804.516 1096.77 808.673 1099.54 814.213C1116.17 862.683 1124.48 912.539 1121.71 963.782C1120.33 999.789 1113.4 1035.8 1098.16 1069.04C1091.23 1085.66 1080.14 1099.51 1059.36 1102.28C1045.5 1103.66 1033.03 1098.12 1020.56 1092.58C983.147 1071.81 954.048 1041.34 930.493 1008.1C916.639 990.096 905.553 970.706 894.467 951.319C891.696 947.162 888.924 945.779 884.769 947.162C851.512 955.472 819.642 963.782 786.388 972.092C782.229 973.476 778.074 974.862 776.686 980.402C746.204 1045.49 706.019 1103.66 651.981 1152.13C627.038 1174.29 602.095 1193.68 571.613 1207.53C561.915 1211.68 550.829 1215.84 541.13 1218.61C514.8 1224.15 496.787 1213.07 491.244 1186.76C487.089 1167.37 485.702 1147.98 485.702 1128.59C487.089 1056.57 507.873 988.712 546.67 927.776C552.213 919.466 557.756 911.156 564.686 902.846C554.984 900.076 545.286 895.923 535.588 893.153C500.946 882.073 466.305 869.609 430.276 865.453C412.263 864.069 394.251 864.069 377.622 868.223C345.752 876.533 336.054 904.233 354.066 931.929C367.924 952.702 388.708 966.552 410.879 979.016C427.505 987.326 444.133 994.249 460.762 1002.56C463.533 998.406 464.917 999.789 467.689 1001.18ZM801.629 925.006C803.017 926.389 803.017 926.389 804.401 927.776C826.572 923.619 848.74 919.466 870.912 913.926C931.88 898.693 988.69 872.379 1033.03 828.059C1063.52 797.593 1091.23 764.353 1118.94 731.116C1159.13 682.643 1192.38 628.633 1215.93 570.467C1222.86 551.077 1229.79 531.687 1236.72 512.3C1236.72 510.914 1235.33 510.914 1235.33 509.53C1220.09 510.914 1204.85 512.3 1189.61 515.07C1114.79 531.687 1051.05 569.08 992.849 618.937C913.868 685.413 855.671 765.74 821.029 861.299C814.099 882.073 807.172 904.233 801.629 925.006ZM773.918 649.407C773.918 648.02 773.918 648.02 773.918 649.407C776.686 648.02 779.458 648.02 783.616 648.02C785.001 648.02 786.388 648.02 786.388 648.02C843.197 639.713 893.08 616.167 936.036 577.39C942.966 570.467 949.893 563.54 955.436 555.233C965.134 539.997 958.207 524.763 941.579 520.61C931.88 517.84 922.178 516.454 913.868 517.84C857.055 523.38 805.785 545.537 761.445 580.16C751.747 588.47 742.048 599.55 736.505 610.63C728.191 625.863 736.505 641.097 753.131 645.25C760.061 646.637 766.988 648.02 773.918 649.407Z" fill="#F4F5F5" fill-opacity="0.1"/>
</g>
<defs>
<filter id="filter0_d_912_7" x="0" y="0" width="1556.77" height="1500" filterUnits="userSpaceOnUse" color-interpolation-filters="sRGB">
<feFlood flood-opacity="0" result="BackgroundImageFix"/>
<feColorMatrix in="SourceAlpha" type="matrix" values="0 0 0 0 0 0 0 0 0 0 0 0 0 0 0 0 0 0 127 0" result="hardAlpha"/>
<feOffset dx="30" dy="30"/>
<feGaussianBlur stdDeviation="125"/>
<feComposite in2="hardAlpha" operator="out"/>
<feColorMatrix type="matrix" values="0 0 0 0 0 0 0 0 0 0 0 0 0 0 0 0 0 0 0.25 0"/>
<feBlend mode="normal" in2="BackgroundImageFix" result="effect1_dropShadow_912_7"/>
<feBlend mode="normal" in="SourceGraphic" in2="effect1_dropShadow_912_7" result="shape"/>
</filter>
</defs>
</svg>
