<svg width="50" height="50" viewBox="0 0 50 50" fill="none" xmlns="http://www.w3.org/2000/svg">
<g clip-path="url(#clip0_905_12)">
<mask id="mask0_905_12" style="mask-type:luminance" maskUnits="userSpaceOnUse" x="0" y="0" width="50" height="50">
<path d="M50 0H0V50H50V0Z" fill="white"/>
</mask>
<g mask="url(#mask0_905_12)">
<path d="M25 50C38.8071 50 50 38.8071 50 25C50 11.1929 38.8071 0 25 0C11.1929 0 0 11.1929 0 25C0 38.8071 11.1929 50 25 50Z" fill="#C0C2C4"/>
<path d="M16.4268 33.4353C16.0114 34.4324 15.8036 35.4711 15.8036 36.5929C15.5543 36.4683 15.305 36.3852 15.0558 36.2605C12.1474 34.5986 10.4855 32.1473 10.1116 28.8235C9.9454 27.2031 10.1531 25.6659 10.6933 24.1286C11.0256 23.2146 11.4411 22.3836 11.815 21.4696C11.8566 21.3449 11.9397 21.2203 11.9397 21.0956C11.9812 19.2675 11.9397 17.4395 11.4411 15.6529C11.0256 14.1572 10.4024 12.7861 9.44683 11.4981C9.32219 11.332 9.156 11.1242 9.0729 10.9165C8.86516 10.4595 9.11445 9.96091 9.65457 10.0024C9.98695 10.0024 10.3193 10.0855 10.6102 10.2102C12.1059 10.7503 13.4354 11.6228 14.7234 12.5368C16.0114 13.4924 17.2162 14.5727 18.338 15.6945C19.1274 15.279 19.9168 14.8635 20.7062 14.4896C22.9914 13.4093 25.4011 12.703 27.894 12.3706C30.3037 12.0383 32.7135 12.0798 35.1233 12.7446C36.5359 13.1185 37.8239 13.7002 38.9456 14.6142C39.4442 14.9881 39.8597 15.4867 40.2336 15.9437C40.7737 16.5254 40.7322 17.2317 40.6075 17.9796C40.2336 20.057 39.4027 21.9266 38.2809 23.7131C37.4499 25.0427 36.5359 26.2475 35.4556 27.4109C35.331 27.5355 35.2894 27.6602 35.3725 27.8264C35.8711 29.2805 36.1204 30.7762 36.0373 32.3135C35.9958 33.3937 35.788 34.474 35.331 35.4711C35.1233 35.9697 34.7909 36.3852 34.1677 36.4683C33.7522 36.5098 33.3783 36.3436 33.0043 36.1774C31.8825 35.5542 31.01 34.6402 30.3037 33.643C29.8883 33.1029 29.5559 32.5212 29.2235 31.9396C29.1404 31.8149 29.0573 31.7734 28.9327 31.8149C27.9355 32.0642 26.9799 32.3135 25.9828 32.5628C25.8581 32.6043 25.7335 32.6459 25.6919 32.8121C24.7779 34.7648 23.573 36.5098 21.9527 37.964C21.2048 38.6287 20.4569 39.2104 19.5429 39.6259C19.2521 39.7505 18.9197 39.8752 18.6289 39.9583C17.8394 40.1245 17.2993 39.7921 17.1331 39.0027C17.0085 38.421 16.9669 37.8393 16.9669 37.2577C17.0085 35.0972 17.6317 33.0614 18.795 31.2333C18.9612 30.984 19.1274 30.7347 19.3352 30.4854C19.0443 30.4023 18.7535 30.2777 18.4627 30.1946C17.424 29.8622 16.3853 29.4883 15.305 29.3636C14.7649 29.3221 14.2248 29.3221 13.7262 29.4467C12.7706 29.696 12.4798 30.527 13.0199 31.3579C13.4354 31.9811 14.0586 32.3966 14.7234 32.7705C15.2219 33.0198 15.7205 33.2275 16.2191 33.4768C16.3022 33.3522 16.3437 33.3937 16.4268 33.4353ZM26.4398 31.1502C26.4814 31.1917 26.4814 31.1917 26.5229 31.2333C27.1877 31.1086 27.8524 30.984 28.5172 30.8178C30.3453 30.3608 32.0487 29.5714 33.3783 28.2418C34.2923 27.3278 35.1233 26.3306 35.9542 25.3335C37.1591 23.8793 38.1562 22.259 38.8625 20.514C39.0703 19.9323 39.278 19.3506 39.4858 18.769C39.4858 18.7274 39.4442 18.7274 39.4442 18.6859C38.9872 18.7274 38.5302 18.769 38.0731 18.8521C35.8296 19.3506 33.9184 20.4724 32.1734 21.9681C29.8052 23.9624 28.0602 26.3722 27.0215 29.239C26.8137 29.8622 26.606 30.527 26.4398 31.1502ZM25.6089 22.8822C25.6089 22.8406 25.6089 22.8406 25.6089 22.8822C25.6919 22.8406 25.775 22.8406 25.8997 22.8406C25.9412 22.8406 25.9828 22.8406 25.9828 22.8406C27.6862 22.5914 29.1819 21.885 30.4699 20.7217C30.6777 20.514 30.8854 20.3062 31.0516 20.057C31.3424 19.5999 31.1347 19.1429 30.6361 19.0183C30.3453 18.9352 30.0544 18.8936 29.8052 18.9352C28.1017 19.1014 26.5644 19.7661 25.2349 20.8048C24.9441 21.0541 24.6533 21.3865 24.4871 21.7189C24.2378 22.1759 24.4871 22.6329 24.9856 22.7575C25.1934 22.7991 25.4011 22.8406 25.6089 22.8822Z" fill="#878C8F"/>
</g>
</g>
<defs>
<clipPath id="clip0_905_12">
<rect width="50" height="50" fill="white"/>
</clipPath>
</defs>
</svg>
